<?xml version="1.0" encoding="UTF-8" standalone="no"?>
<svg width="24px" height="48px" viewBox="0 0 24 48" version="1.1" xmlns="http://www.w3.org/2000/svg" xmlns:xlink="http://www.w3.org/1999/xlink" xmlns:sketch="http://www.bohemiancoding.com/sketch/ns">
    <title>Bottom Bezier</title>
    <description>WHUT!?!</description>
    <defs></defs>
    <g id="Bottom" stroke="none" stroke-width="1" fill="none" fill-rule="evenodd">
        <path d="M5.99253976,3 L18.0074602,3 C19.6470745,3 21,4.33980569 21,5.99253976 L21,18.0074602 C21,19.6470745 19.6601943,21 18.0074602,21 L5.99253976,21 C4.35292554,21 3,19.6601943 3,18.0074602 L3,5.99253976 C3,4.35292554 4.33980569,3 5.99253976,3 Z M7.73529278,17.0856515 C7.87841545,16.2413805 8.08917077,15.3986135 8.37734406,14.6216675 C8.73151798,13.6667769 9.17691349,12.8862282 9.70718882,12.3381804 C10.3899774,11.6325077 11.7937317,10.700513 13.6692475,9.6661759 C14.7004594,9.09746796 15.8086592,8.53301381 16.9172821,7.99949743 C17.305586,7.81262913 17.665986,7.64308455 17.9890398,7.49410173 C18.1818478,7.40518441 18.3185834,7.34322385 18.3898349,7.31143738 L17.5750089,5.48494934 C17.4963823,5.52002591 17.3520966,5.58540778 17.1514747,5.67792866 C16.818812,5.83134282 16.4485565,6.00552371 16.0500006,6.19732572 C14.9104527,6.7457245 13.7704817,7.32636119 12.7034008,7.91485063 C10.6614288,9.04098743 9.13202658,10.0564036 8.26986195,10.9474642 C7.52294102,11.7194186 6.94499781,12.7322551 6.5021734,13.926157 C6.16613982,14.8321393 5.92597479,15.7925097 5.76342563,16.7513762 C5.66577075,17.3274357 5.61504275,17.7804281 5.59635459,18.0519372 L7.59163369,18.1892737 C7.60604185,17.9799462 7.64954455,17.5914744 7.73529278,17.0856515 Z M7.73529278,17.0856515" id="Bottom Bezier" fill="#BBBBBB"></path>
        <path d="M5.99253976,27 L18.0074602,27 C19.6470745,27 21,28.3398057 21,29.9925398 L21,42.0074602 C21,43.6470745 19.6601943,45 18.0074602,45 L5.99253976,45 C4.35292554,45 3,43.6601943 3,42.0074602 L3,29.9925398 C3,28.3529255 4.33980569,27 5.99253976,27 Z M7.73529278,41.0856515 C7.87841545,40.2413805 8.08917077,39.3986135 8.37734406,38.6216675 C8.73151798,37.6667769 9.17691349,36.8862282 9.70718882,36.3381804 C10.3899774,35.6325077 11.7937317,34.700513 13.6692475,33.6661759 C14.7004594,33.097468 15.8086592,32.5330138 16.9172821,31.9994974 C17.305586,31.8126291 17.665986,31.6430846 17.9890398,31.4941017 C18.1818478,31.4051844 18.3185834,31.3432238 18.3898349,31.3114374 L17.5750089,29.4849493 C17.4963823,29.5200259 17.3520966,29.5854078 17.1514747,29.6779287 C16.818812,29.8313428 16.4485565,30.0055237 16.0500006,30.1973257 C14.9104527,30.7457245 13.7704817,31.3263612 12.7034008,31.9148506 C10.6614288,33.0409874 9.13202658,34.0564036 8.26986195,34.9474642 C7.52294102,35.7194186 6.94499781,36.7322551 6.5021734,37.926157 C6.16613982,38.8321393 5.92597479,39.7925097 5.76342563,40.7513762 C5.66577075,41.3274357 5.61504275,41.7804281 5.59635459,42.0519372 L7.59163369,42.1892737 C7.60604185,41.9799462 7.64954455,41.5914744 7.73529278,41.0856515 Z M7.73529278,41.0856515" id="Bottom Bezier On" fill="#78B2F2"></path>
    </g>
</svg>